<?xml version="1.0" encoding="UTF-8"?>
<svg width="24px" height="24px" viewBox="0 0 24 24" version="1.1" xmlns="http://www.w3.org/2000/svg" xmlns:xlink="http://www.w3.org/1999/xlink">
    <!-- Generator: Sketch 64 (93537) - https://sketch.com -->
    <title>alert</title>
    <desc>Created with Sketch.</desc>
    <g id="alert" stroke="none" stroke-width="1" fill="none" fill-rule="evenodd">
        <path d="M12,20 C16.4183111,20 20,16.4183111 20,12 C20,7.58173333 16.4183111,4 12,4 C7.58170667,4 4,7.58173333 4,12 C4,16.4183111 7.58170667,20 12,20 Z M12,6.66666667 C12.4909333,6.66666667 12.8888889,7.06464 12.8888889,7.55555556 L12.8888889,12.8888889 C12.8888889,13.3798222 12.4909333,13.7777778 12,13.7777778 C11.5090667,13.7777778 11.1111111,13.3798222 11.1111111,12.8888889 L11.1111111,7.55555556 C11.1111111,7.06464 11.5090667,6.66666667 12,6.66666667 Z M12.8888889,16.4444444 C12.8888889,16.9353778 12.4909333,17.3333333 12,17.3333333 C11.5090667,17.3333333 11.1111111,16.9353778 11.1111111,16.4444444 C11.1111111,15.9535111 11.5090667,15.5555556 12,15.5555556 C12.4909333,15.5555556 12.8888889,15.9535111 12.8888889,16.4444444 Z" id="Shape" fill="#000000" fill-rule="nonzero"></path>
    </g>
</svg>