<?xml version="1.0" encoding="UTF-8"?>
<svg width="24px" height="24px" viewBox="0 0 24 24" version="1.1" xmlns="http://www.w3.org/2000/svg" xmlns:xlink="http://www.w3.org/1999/xlink">
    <!-- Generator: Sketch 64 (93537) - https://sketch.com -->
    <title>delete-alt</title>
    <desc>Created with Sketch.</desc>
    <g id="delete-alt" stroke="none" stroke-width="1" fill="none" fill-rule="evenodd">
        <path d="M12,4 C16.4183,4 20,7.58173 20,12 C20,16.4183 16.4183,20 12,20 C7.58173,20 4,16.4183 4,12 C4,7.58173 7.58173,4 12,4 Z M8.96967,8.96967 C8.67676,9.26257 8.67676,9.73743 8.96967,10.0303 L10.9393,12 L8.96967,13.9697 C8.67676,14.2626 8.67676,14.7374 8.96967,15.0303 C9.26257,15.3232 9.73743,15.3232 10.0303,15.0303 L12,13.0607 L13.9697,15.0303 C14.2626,15.3232 14.7374,15.3232 15.0303,15.0303 C15.3232,14.7374 15.3232,14.2626 15.0303,13.9697 L13.0607,12 L15.0303,10.0303 C15.3232,9.73743 15.3232,9.26257 15.0303,8.96967 C14.7374,8.67679 14.2626,8.67679 13.9697,8.96967 L12,10.9393 L10.0303,8.96967 C9.73743,8.67679 9.26257,8.67679 8.96967,8.96967 Z" id="Shape" fill="#000000" fill-rule="nonzero"></path>
    </g>
</svg>