<?xml version="1.0" encoding="UTF-8"?>
<svg width="24px" height="24px" viewBox="0 0 24 24" version="1.1" xmlns="http://www.w3.org/2000/svg" xmlns:xlink="http://www.w3.org/1999/xlink">
    <!-- Generator: Sketch 64 (93537) - https://sketch.com -->
    <title>hide</title>
    <desc>Created with Sketch.</desc>
    <g id="hide" stroke="none" stroke-width="1" fill="none" fill-rule="evenodd">
        <polygon id="Path" fill="#000000" fill-rule="nonzero" points="6.80478088 18.685259 18.3426295 7.14741036 17.1952191 6 5.65737052 17.5378486"></polygon>
        <path d="M6.59760956,15.4342629 L8.84462151,13.187251 L8.86055777,13.2191235 C8.81806109,13.0810093 8.78618858,12.937583 8.76494024,12.7888446 C8.7436919,12.6401062 8.73306773,12.4913679 8.73306773,12.3426295 C8.73306773,11.8964143 8.81806109,11.4714475 8.98804781,11.0677291 C9.1686587,10.6746348 9.40504648,10.3320053 9.69721116,10.0398406 C9.98937583,9.74767596 10.3320053,9.51128818 10.7250996,9.33067729 C11.1288181,9.16069057 11.5537849,9.07569721 12,9.07569721 C12.1487384,9.07569721 12.2948207,9.08632138 12.438247,9.10756972 C12.5816733,9.12881806 12.7171315,9.15537849 12.8446215,9.187251 L12.8446215,9.187251 L14.291421,7.740749 L14.061753,7.68525896 C13.873174,7.64276228 13.6819389,7.60557769 13.4880478,7.57370518 L13.1952191,7.52988048 C12.8021248,7.47675963 12.4037185,7.4501992 12,7.4501992 C11.1288181,7.4501992 10.2948207,7.56706507 9.49800797,7.80079681 C8.70119522,8.03452855 7.95750332,8.36653386 7.26693227,8.79681275 C6.57636122,9.22709163 5.95484728,9.73970784 5.40239044,10.3346614 C4.8499336,10.940239 4.38247012,11.6095618 4,12.3426295 C4.30810093,12.9482072 4.68260292,13.5139442 5.12350598,14.0398406 C5.56440903,14.5657371 6.05577689,15.0305445 6.59760956,15.4342629 L6.59760956,15.4342629 Z" id="Path" fill="#000000" fill-rule="nonzero"></path>
        <path d="M17.3953785,9.25839044 L15.1553785,11.498008 L15.1394422,11.4661355 C15.1819389,11.6042497 15.2138114,11.747676 15.2350598,11.8964143 C15.2563081,12.0451527 15.2669323,12.1938911 15.2669323,12.3426295 C15.2669323,12.7888446 15.1819389,13.2138114 15.0119522,13.6175299 C14.8313413,14.0106242 14.5949535,14.3532537 14.3027888,14.6454183 C14.0106242,14.937583 13.6679947,15.1739708 13.2749004,15.3545817 C12.8711819,15.5245684 12.4462151,15.6095618 12,15.6095618 C11.8512616,15.6095618 11.7051793,15.5989376 11.561753,15.5776892 C11.4183267,15.5564409 11.2828685,15.5298805 11.1553785,15.498008 L11.1553785,15.498008 L9.70653918,16.9472297 L10.0256751,17.021691 C10.1543456,17.0494319 10.2836063,17.075107 10.4134573,17.0987162 L10.8047809,17.1633466 C11.1978752,17.2217795 11.5962815,17.250996 12,17.250996 C12.8711819,17.250996 13.7051793,17.1288181 14.501992,16.8844622 C15.309429,16.6507304 16.0557769,16.3187251 16.7410359,15.8884462 C17.4262948,15.4581673 18.0451527,14.9455511 18.5976096,14.3505976 C19.1606906,13.7450199 19.6281541,13.0756972 20,12.3426295 C19.6918991,11.7370518 19.3173971,11.1713147 18.876494,10.6454183 C18.435591,10.1195219 17.938911,9.65471448 17.3864542,9.25099602 L17.3953785,9.25839044 Z" id="Path" fill="#000000" fill-rule="nonzero"></path>
    </g>
</svg>