<?xml version="1.0" encoding="UTF-8"?>
<svg width="24px" height="24px" viewBox="0 0 24 24" version="1.1" xmlns="http://www.w3.org/2000/svg" xmlns:xlink="http://www.w3.org/1999/xlink">
    <!-- Generator: Sketch 64 (93537) - https://sketch.com -->
    <title>show</title>
    <desc>Created with Sketch.</desc>
    <g id="show" stroke="none" stroke-width="1" fill="none" fill-rule="evenodd">
        <path d="M12,7 C12.8711819,7 13.7051793,7.11686587 14.501992,7.35059761 C15.2988048,7.58432935 16.0398406,7.91367862 16.7250996,8.33864542 C17.4103586,8.76361222 18.0292165,9.27357238 18.5816733,9.8685259 C19.1341301,10.4634794 19.5962815,11.122178 19.9681275,11.8446215 L19.9681275,11.8446215 L20,11.8924303 L19.8016822,12.2536521 C19.4593478,12.8468349 19.0579903,13.3957503 18.5976096,13.9003984 C18.0451527,14.4953519 17.4236388,15.0079681 16.7330677,15.438247 C16.0424967,15.8685259 15.2988048,16.2005312 14.501992,16.4342629 C13.7051793,16.6679947 12.8711819,16.7848606 12,16.7848606 C11.1288181,16.7848606 10.2948207,16.6679947 9.49800797,16.4342629 C8.70119522,16.2005312 7.96015936,15.8711819 7.2749004,15.4462151 C6.58964143,15.0212483 5.97078353,14.5112882 5.41832669,13.9163347 C4.86586985,13.3213811 4.40371846,12.6626826 4.03187251,11.940239 L4.03187251,11.940239 L4,11.8924303 L4.19831784,11.5312085 C4.54065221,10.9380257 4.94200974,10.3891102 5.40239044,9.88446215 C5.95484728,9.28950863 6.57636122,8.77689243 7.26693227,8.34661355 C7.95750332,7.91633466 8.70119522,7.58432935 9.49800797,7.35059761 C10.2948207,7.11686587 11.1288181,7 12,7 Z M12,8.62549801 L11.7348207,8.63569721 C11.3846481,8.66289509 11.0480744,8.74448871 10.7250996,8.88047809 C10.3320053,9.05046481 9.98671979,9.28419655 9.68924303,9.58167331 C9.39176627,9.87915007 9.15803453,10.2244356 8.98804781,10.6175299 C8.81806109,11.0212483 8.73306773,11.4462151 8.73306773,11.8924303 C8.73306773,12.3386454 8.81806109,12.7636122 8.98804781,13.1673307 C9.15803453,13.560425 9.39176627,13.9057105 9.68924303,14.2031873 C9.98671979,14.500664 10.3320053,14.7343958 10.7250996,14.9043825 C11.1288181,15.0743692 11.5537849,15.1593625 12,15.1593625 C12.4462151,15.1593625 12.8711819,15.0743692 13.2749004,14.9043825 C13.6679947,14.7343958 14.0132802,14.500664 14.310757,14.2031873 C14.6082337,13.9057105 14.8419655,13.560425 15.0119522,13.1673307 C15.1819389,12.7636122 15.2669323,12.3386454 15.2669323,11.8924303 C15.2669323,11.4462151 15.1819389,11.0212483 15.0119522,10.6175299 C14.8419655,10.2244356 14.6082337,9.87915007 14.310757,9.58167331 C14.0132802,9.28419655 13.6679947,9.05046481 13.2749004,8.88047809 C12.928856,8.73477518 12.5672006,8.65151638 12.1899341,8.63070168 L12.1899341,8.63070168 L12,8.62549801 Z" id="Combined-Shape" fill="#000000" fill-rule="nonzero"></path>
        <path d="M12,13.5179283 C12.4462151,13.5179283 12.8286853,13.3585657 13.1474104,13.0398406 C13.4661355,12.7211155 13.625498,12.3386454 13.625498,11.8924303 C13.625498,11.4462151 13.4661355,11.063745 13.1474104,10.7450199 C12.8286853,10.4262948 12.4462151,10.2669323 12,10.2669323 L12,10.2669323 L11.8680478,10.2717131 C11.4779283,10.3003984 11.1394422,10.4581673 10.8525896,10.7450199 C10.5338645,11.063745 10.374502,11.4462151 10.374502,11.8924303 C10.374502,12.3386454 10.5338645,12.7211155 10.8525896,13.0398406 C11.1713147,13.3585657 11.5537849,13.5179283 12,13.5179283 Z" id="Path" fill="#000000" fill-rule="nonzero"></path>
    </g>
</svg>