<?xml version="1.0" encoding="UTF-8"?>
<svg width="24px" height="24px" viewBox="0 0 24 24" version="1.1" xmlns="http://www.w3.org/2000/svg" xmlns:xlink="http://www.w3.org/1999/xlink">
    <!-- Generator: Sketch 64 (93537) - https://sketch.com -->
    <title>spinner</title>
    <desc>Created with Sketch.</desc>
    <g id="spinner" stroke="none" stroke-width="1" fill="none" fill-rule="evenodd">
        <path d="M12,5.77787556 C8.56356444,5.77787556 5.77777778,8.56366222 5.77777778,12.0000978 C5.77777778,15.4365422 8.56356444,18.22232 12,18.22232 C15.4364444,18.22232 18.2222222,15.4365422 18.2222222,12.0000978 C18.2222222,8.56366222 15.4364444,5.77787556 12,5.77787556 Z M4,12.0000978 C4,7.58182222 7.58172444,4.00009778 12,4.00009778 C16.4183111,4.00009778 20,7.58182222 20,12.0000978 C20,16.4184089 16.4183111,20.0000978 12,20.0000978 C7.58172444,20.0000978 4,16.4184089 4,12.0000978 Z" id="Shape" fill-opacity="0.32" fill="#000000"></path>
        <path d="M16.3997333,7.60023111 C13.9698667,5.17030222 10.0301511,5.17030222 7.60022222,7.60023111 C7.25309333,7.94736 6.69027556,7.94736 6.34314667,7.60023111 C5.99600889,7.25309333 5.99600889,6.69028444 6.34314667,6.34314667 C9.46734222,3.21895111 14.5326222,3.21895111 17.6568889,6.34314667 C18.004,6.69028444 18.004,7.25309333 17.6568889,7.60023111 C17.3096889,7.94736 16.7469333,7.94736 16.3997333,7.60023111 Z" id="Path" fill="#000000" fill-rule="nonzero"></path>
    </g>
</svg>