<?xml version="1.0" encoding="UTF-8"?>
<svg width="24px" height="24px" viewBox="0 0 24 24" version="1.1" xmlns="http://www.w3.org/2000/svg" xmlns:xlink="http://www.w3.org/1999/xlink">
    <!-- Generator: Sketch 64 (93537) - https://sketch.com -->
    <title>upload</title>
    <desc>Created with Sketch.</desc>
    <g id="upload" stroke="none" stroke-width="1" fill="none" fill-rule="evenodd">
        <path d="M14,6 C12.7004,6 11.56152,6.688672 10.92872,7.720896 C10.6324,7.641992 10.321096,7.6 10,7.6 C8.11348,7.6 6.566016,9.050976 6.412496,10.89768 C5.025976,11.2484 4,12.50432 4,14 C4,15.76736 5.432616,17.2 7.2,17.2 L11.2,17.2 L11.2,13.53144 L10.165624,14.5656 C9.85332,14.87816 9.34668,14.87816 9.034376,14.5656 C8.721872,14.25336 8.721872,13.74664 9.034376,13.4344 L11.4344,11.0344 C11.74664,10.72184 12.25336,10.72184 12.5656,11.0344 L14.9656,13.4344 C15.27816,13.74664 15.27816,14.25336 14.9656,14.5656 C14.65336,14.87816 14.14664,14.87816 13.8344,14.5656 L12.8,13.53144 L12.8,17.2 L16,17.2 C18.2092,17.2 20,15.4092 20,13.2 C20,11.55936 19.01248,10.1496 17.59944,9.532616 C17.56344,7.575392 15.96584,6 14,6 Z" id="Path" fill="#000000" fill-rule="nonzero"></path>
    </g>
</svg>